Coordinates
version=1
nRows=26
nColumns=24
inDegrees=yes

Units are S.I. units (second, meters, Newtons, ...)
Angles are in degrees.

endheader
time	pelvis_tilt	pelvis_list	pelvis_rotation	pelvis_tx	pelvis_ty	pelvis_tz	hip_flexion_r	hip_adduction_r	hip_rotation_r	knee_angle_r	ankle_angle_r	subtalar_angle_r	mtp_angle_r	hip_flexion_l	hip_adduction_l	hip_rotation_l	knee_angle_l	ankle_angle_l	subtalar_angle_l	mtp_angle_l	lumbar_extension	lumbar_bending	lumbar_rotation
      8.08000000	      6.47042708	     -4.61095111	     -3.66698928	      2.21163722	      0.94689489	     -0.16663664	     12.17143148	      5.91051129	     -3.21246862	    -57.01777930	     -0.66755516	    -15.94540935	      0.00000000	     -1.41882626	      0.49667851	      0.76521906	    -10.03654943	      8.82294252	     -5.93586836	      0.00000000	    -23.87594116	      4.45640778	      1.72424005
      8.09000000	      6.29884255	     -4.75570551	     -3.59508473	      2.21987094	      0.94714655	     -0.16695756	     13.19542263	      6.19146255	     -3.29304274	    -55.91756813	      0.98077770	    -15.37992740	      0.00000000	     -1.96217154	      0.37012639	      0.74492945	     -9.73418995	      9.25739940	     -5.71060806	      0.00000000	    -23.76187287	      4.71015409	      1.54984784
      8.10000000	      6.12201874	     -4.86379138	     -3.50746203	      2.22812174	      0.94724862	     -0.16724252	     14.14706384	      6.42716962	     -3.37205483	    -54.58218432	      2.39685344	    -14.72007768	      0.00000000	     -2.49757082	      0.27889174	      0.73398520	     -9.42795274	      9.69265065	     -5.50309112	      0.00000000	    -23.64025902	      4.91960175	      1.36185880
      8.11000000	      5.94233126	     -4.94663971	     -3.39022768	      2.23639156	      0.94720961	     -0.16751563	     15.01402934	      6.62265836	     -3.46948873	    -53.00043192	      3.57952270	    -14.04605411	      0.00000000	     -3.02740061	      0.21071120	      0.76420912	     -9.11872120	     10.12263200	     -5.30920748	      0.00000000	    -23.52005266	      5.10267741	      1.14579668
      8.12000000	      5.76307946	     -5.00668935	     -3.24917391	      2.24469949	      0.94704503	     -0.16776011	     15.78270282	      6.78341800	     -3.58056468	    -51.16326281	      4.54048873	    -13.41361678	      0.00000000	     -3.55615816	      0.16240194	      0.82362343	     -8.80976821	     10.54696932	     -5.13492671	      0.00000000	    -23.40527673	      5.26107456	      0.91363926
      8.13000000	      5.58977431	     -5.04619921	     -3.08528969	      2.25306008	      0.94676193	     -0.16798286	     16.43870100	      6.90697925	     -3.71609421	    -49.06482240	      5.30045021	    -12.84995425	      0.00000000	     -4.09267285	      0.13295391	      0.92572331	     -8.49882335	     10.95930356	     -4.99018920	      0.00000000	    -23.29971282	      5.39621366	      0.66965643
      8.14000000	      5.42227453	     -5.06819527	     -2.90404331	      2.26149529	      0.94636281	     -0.16816919	     16.97363656	      7.00160180	     -3.86880129	    -46.70035861	      5.84021981	    -12.36493040	      0.00000000	     -4.63916520	      0.11991729	      1.08848805	     -8.18953107	     11.36689334	     -4.88960485	      0.00000000	    -23.20075994	      5.50845003	      0.41013078
      8.15000000	      5.25613845	     -5.06114132	     -2.71191502	      2.27003155	      0.94582306	     -0.16832465	     17.39425887	      7.04236100	     -4.07485312	    -44.08478554	      6.26038042	    -11.93924928	      0.00000000	     -5.19167009	      0.13394196	      1.25876431	     -7.87851351	     11.75622432	     -4.83723162	      0.00000000	    -23.08820767	      5.58265132	      0.18115187
      8.16000000	      5.14083262	     -4.98945031	     -2.52705380	      2.27868435	      0.94520084	     -0.16844494	     17.64958637	      7.00194547	     -4.28983817	    -41.24909269	      6.69957813	    -11.29155497	      0.00000000	     -5.81421088	      0.22156471	      1.47652339	     -7.55334240	     12.08211285	     -4.80591342	      0.00000000	    -23.02390959	      5.57535968	     -0.06699581
      8.17000000	      5.00240461	     -4.89645528	     -2.32280105	      2.28746117	      0.94439479	     -0.16853165	     17.81359943	      6.92725424	     -4.56858448	    -38.17840517	      6.86782195	    -10.72840085	      0.00000000	     -6.40736956	      0.32310597	      1.72346983	     -7.24982477	     12.46311547	     -4.79780597	      0.00000000	    -22.90876954	      5.54154322	     -0.32273489
      8.18000000	      4.91544232	     -4.74166366	     -2.13503551	      2.29636897	      0.94349895	     -0.16857332	     17.81516615	      6.78312657	     -4.86404818	    -34.92176242	      7.09726341	     -9.80980644	      0.00000000	     -7.06801856	      0.49447659	      2.01802840	     -6.94146044	     12.74037023	     -4.86944124	      0.00000000	    -22.83739981	      5.42431027	     -0.56534681
      8.19000000	      4.82473011	     -4.54573096	     -1.92609726	      2.30540269	      0.94243619	     -0.16859870	     17.71971783	      6.59086546	     -5.21810872	    -31.48843473	      7.11642062	     -8.80167064	      0.00000000	     -7.71292792	      0.70064851	      2.33516454	     -6.66574116	     13.06358908	     -4.93874616	      0.00000000	    -22.73710262	      5.26189030	     -0.83242928
      8.20000000	      4.75170447	     -4.30821040	     -1.69745174	      2.31455565	      0.94124541	     -0.16859816	     17.50995072	      6.35767679	     -5.61134016	    -27.90343455	      7.00006171	     -7.60080953	      0.00000000	     -8.36458709	      0.94145576	      2.67318048	     -6.42459762	     13.39860804	     -5.00456318	      0.00000000	    -22.63993016	      5.04652558	     -1.12267489
      8.21000000	      4.69519735	     -4.04498275	     -1.42201831	      2.32381939	      0.93994024	     -0.16859761	     17.18303294	      6.11039436	     -5.99818052	    -24.16630181	      6.67929976	     -6.36303184	      0.00000000	     -9.00410294	      1.19310404	      3.05205662	     -6.25076837	     13.77282647	     -5.01432637	      0.00000000	    -22.54497240	      4.81122938	     -1.48721560
      8.22000000	      4.65000979	     -3.73500198	     -1.16351137	      2.33317683	      0.93851811	     -0.16855494	     16.79206274	      5.80694151	     -6.48676593	    -20.38050755	      6.28030318	     -4.65932595	      0.00000000	     -9.65900381	      1.49231977	      3.44326038	     -6.08074016	     14.08576641	     -5.15638085	      0.00000000	    -22.45723198	      4.50974148	     -1.78447559
      8.23000000	      4.62247872	     -3.41101708	     -0.83329427	      2.34263236	      0.93702145	     -0.16852789	     16.29676905	      5.50367007	     -6.95667641	    -16.49053429	      5.67354795	     -3.01350843	      0.00000000	    -10.30432323	      1.78219807	      3.89541574	     -5.97302739	     14.41698675	     -5.26152292	      0.00000000	    -22.38390861	      4.20587769	     -2.16683889
      8.24000000	      4.63902702	     -3.07173522	     -0.44393178	      2.35222194	      0.93548978	     -0.16850471	     15.66919308	      5.20546274	     -7.32255026	    -12.53499419	      4.91891224	     -1.51443102	      0.00000000	    -10.98864219	      2.06276095	      4.35690718	     -5.89824673	     14.76996837	     -5.27222057	      0.00000000	    -22.34532500	      3.90225650	     -2.62960369
      8.25000000	      4.64448907	     -2.68426176	     -0.03688042	      2.36184639	      0.93386547	     -0.16846688	     15.04571256	      4.84433009	     -7.89293787	     -8.68559026	      4.20371626	      0.35732079	      0.00000000	    -11.63592164	      2.38196417	      4.85435190	     -5.87976025	     15.05130119	     -5.38935278	      0.00000000	    -22.31250718	      3.53641553	     -3.03697481
      8.26000000	      4.70406109	     -2.27515261	      0.41610554	      2.37158983	      0.93224567	     -0.16839491	     14.31389433	      4.48896257	     -8.26035772	     -4.92620828	      3.51581490	      1.88785481	      0.00000000	    -12.33561936	      2.69489185	      5.32084231	     -5.89360617	     15.36271233	     -5.36677046	      0.00000000	    -22.33900144	      3.15154762	     -3.50189901
      8.27000000	      4.80840125	     -1.85118826	      0.87148268	      2.38143234	      0.93063099	     -0.16824964	     13.51800900	      4.13640733	     -8.31825059	     -1.37463373	      2.93551914	      2.98069185	      0.00000000	    -13.07270549	      3.00366570	      5.70389563	     -5.95179365	     15.70004011	     -5.25639673	      0.00000000	    -22.42249770	      2.74452900	     -3.93785453
      8.28000000	      4.89909302	     -1.42889325	      1.35891444	      2.39136754	      0.92899234	     -0.16809787	     12.77675738	      3.76694248	     -8.24965999	      1.80364327	      2.62363226	      3.77886778	      0.00000000	    -13.77085848	      3.28718044	      6.08736626	     -6.07916916	     16.01199937	     -5.08785251	      0.00000000	    -22.48658144	      2.35238737	     -4.38917103
      8.29000000	      5.03981831	     -1.03151073	      1.79226415	      2.40139456	      0.92744769	     -0.16784443	     12.06860358	      3.40997711	     -8.00819618	      4.45358903	      2.67036028	      4.35031927	      0.00000000	    -14.51523753	      3.53985047	      6.37003059	     -6.24377597	     16.29151724	     -4.90838160	      0.00000000	    -22.61403061	      1.97617137	     -4.73762176
      8.30000000	      5.20441147	     -0.69260946	      2.18905515	      2.41149063	      0.92602172	     -0.16752792	     11.45732367	      3.08452118	     -7.62015299	      6.44613713	      3.04171404	      4.62483882	      0.00000000	    -15.23864995	      3.72658254	      6.58315196	     -6.51484599	     16.54559435	     -4.69373483	      0.00000000	    -22.77744016	      1.66695243	     -4.99068757
      8.31000000	      5.39862062	     -0.43347263	      2.50546811	      2.42166845	      0.92476881	     -0.16709886	     10.96945227	      2.82096895	     -7.12767896	      7.67957684	      3.62943570	      4.67141341	      0.00000000	    -15.94874657	      3.83761691	      6.68265214	     -6.88266769	     16.77276907	     -4.44520625	      0.00000000	    -22.97199491	      1.43384240	     -5.11706830
      8.32000000	      5.62167306	     -0.26675893	      2.73194428	      2.43194184	      0.92372602	     -0.16654072	     10.61572646	      2.64120327	     -6.58363842	      8.12099249	      4.28047551	      4.60621765	      0.00000000	    -16.62836248	      3.86419171	      6.65710568	     -7.37416233	     16.96632532	     -4.13791291	      0.00000000	    -23.18813011	      1.28812973	     -5.11705367
      8.33000000	      5.85395928	     -0.18388710	      2.88367217	      2.44233272	      0.92288375	     -0.16588528	     10.40335522	      2.54291801	     -6.04711503	      7.82039200	      4.84787026	      4.54243879	      0.00000000	    -17.23704868	      3.81733186	      6.51918664	     -8.02371428	     17.12965484	     -3.77454246	      0.00000000	    -23.38865842	      1.22514461	     -5.02665744
